<?xml version="1.0" encoding="utf-8" standalone="no"?>
<!DOCTYPE svg PUBLIC "-//W3C//DTD SVG 1.1//EN"
  "http://www.w3.org/Graphics/SVG/1.1/DTD/svg11.dtd">
<!-- Created with matplotlib (https://matplotlib.org/) -->
<svg height="345.6pt" version="1.1" viewBox="0 0 460.8 345.6" width="460.8pt" xmlns="http://www.w3.org/2000/svg" xmlns:xlink="http://www.w3.org/1999/xlink">
 <defs>
  <style type="text/css">
*{stroke-linecap:butt;stroke-linejoin:round;}
  </style>
 </defs>
 <g id="figure_1">
  <g id="patch_1">
   <path d="M 0 345.6 
L 460.8 345.6 
L 460.8 0 
L 0 0 
z
" style="fill:#ffffff;"/>
  </g>
  <g id="axes_1">
   <g id="patch_2">
    <path d="M 57.6 307.584 
L 414.72 307.584 
L 414.72 41.472 
L 57.6 41.472 
z
" style="fill:#ffffff;"/>
   </g>
   <g id="matplotlib.axis_1">
    <g id="xtick_1">
     <g id="line2d_1">
      <defs>
       <path d="M 0 0 
L 0 3.5 
" id="mba9fc81541" style="stroke:#000000;stroke-width:0.8;"/>
      </defs>
      <g>
       <use style="stroke:#000000;stroke-width:0.8;" x="73.832727" xlink:href="#mba9fc81541" y="307.584"/>
      </g>
     </g>
     <g id="text_1">
      <!-- 0 -->
      <defs>
       <path d="M 24.609375 64.453125 
Q 19.140625 64.453125 15.421875 56.046875 
Q 11.71875 47.65625 11.71875 33.59375 
Q 11.71875 18.75 15.421875 10.546875 
Q 19.140625 2.34375 24.609375 2.34375 
Q 30.46875 2.34375 33.78125 10.546875 
Q 37.109375 18.75 37.109375 33.59375 
Q 37.109375 47.65625 33.984375 56.046875 
Q 30.859375 64.453125 24.609375 64.453125 
z
M 24.609375 -0.78125 
Q 16.015625 -0.78125 10.15625 8.203125 
Q 4.296875 17.1875 4.296875 33.59375 
Q 4.296875 48.828125 9.953125 58.203125 
Q 15.625 67.578125 24.609375 67.578125 
Q 33.203125 67.578125 38.859375 58.59375 
Q 44.53125 49.609375 44.53125 33.59375 
Q 44.53125 17.578125 38.859375 8.390625 
Q 33.203125 -0.78125 24.609375 -0.78125 
z
" id="FangSong-48"/>
      </defs>
      <g transform="translate(71.332727 321.576187)scale(0.1 -0.1)">
       <use xlink:href="#FangSong-48"/>
      </g>
     </g>
    </g>
    <g id="xtick_2">
     <g id="line2d_2">
      <g>
       <use style="stroke:#000000;stroke-width:0.8;" x="120.34484" xlink:href="#mba9fc81541" y="307.584"/>
      </g>
     </g>
     <g id="text_2">
      <!-- 500 -->
      <defs>
       <path d="M 26.5625 42.96875 
Q 33.984375 42.96875 38.671875 37.296875 
Q 43.359375 31.640625 43.359375 22.265625 
Q 43.359375 11.71875 38.46875 5.46875 
Q 33.59375 -0.78125 23.4375 -0.78125 
Q 16.40625 -0.78125 10.9375 3.3125 
Q 5.46875 7.421875 5.46875 13.28125 
Q 5.46875 15.625 6.828125 17.375 
Q 8.203125 19.140625 10.546875 19.140625 
Q 12.890625 19.140625 13.671875 17.578125 
Q 14.453125 16.015625 14.453125 14.84375 
Q 14.453125 12.5 13.28125 11.125 
Q 12.109375 9.765625 12.109375 8.203125 
Q 12.109375 5.078125 15.8125 3.515625 
Q 19.53125 1.953125 23.828125 1.953125 
Q 30.078125 1.953125 33.390625 7.03125 
Q 36.71875 12.109375 36.71875 21.484375 
Q 36.71875 29.296875 33.78125 34.171875 
Q 30.859375 39.0625 25 39.0625 
Q 20.703125 39.0625 17.578125 37.5 
Q 14.453125 35.9375 11.71875 30.859375 
L 8.203125 31.25 
L 10.15625 66.796875 
L 42.1875 66.796875 
L 41.015625 60.9375 
L 12.890625 60.9375 
L 11.328125 35.15625 
Q 15.234375 40.625 18.9375 41.796875 
Q 22.65625 42.96875 26.5625 42.96875 
z
" id="FangSong-53"/>
      </defs>
      <g transform="translate(112.84484 321.576187)scale(0.1 -0.1)">
       <use xlink:href="#FangSong-53"/>
       <use x="50" xlink:href="#FangSong-48"/>
       <use x="100" xlink:href="#FangSong-48"/>
      </g>
     </g>
    </g>
    <g id="xtick_3">
     <g id="line2d_3">
      <g>
       <use style="stroke:#000000;stroke-width:0.8;" x="166.856952" xlink:href="#mba9fc81541" y="307.584"/>
      </g>
     </g>
     <g id="text_3">
      <!-- 1000 -->
      <defs>
       <path d="M 28.125 67.96875 
L 28.125 8.59375 
Q 28.125 5.46875 30.078125 3.90625 
Q 32.03125 2.34375 35.546875 2.34375 
L 39.453125 2.34375 
L 39.453125 0 
L 10.9375 0 
L 10.9375 2.34375 
L 14.453125 2.34375 
Q 18.359375 2.34375 20.109375 3.90625 
Q 21.875 5.46875 21.875 8.59375 
L 21.875 55.859375 
Q 21.875 57.421875 20.890625 58.390625 
Q 19.921875 59.375 17.96875 59.375 
L 10.9375 59.375 
L 10.9375 61.71875 
L 14.453125 61.71875 
Q 19.140625 61.71875 22.0625 63.28125 
Q 25 64.84375 26.5625 67.96875 
z
" id="FangSong-49"/>
      </defs>
      <g transform="translate(156.856952 321.576187)scale(0.1 -0.1)">
       <use xlink:href="#FangSong-49"/>
       <use x="50" xlink:href="#FangSong-48"/>
       <use x="100" xlink:href="#FangSong-48"/>
       <use x="150" xlink:href="#FangSong-48"/>
      </g>
     </g>
    </g>
    <g id="xtick_4">
     <g id="line2d_4">
      <g>
       <use style="stroke:#000000;stroke-width:0.8;" x="213.369065" xlink:href="#mba9fc81541" y="307.584"/>
      </g>
     </g>
     <g id="text_4">
      <!-- 1500 -->
      <g transform="translate(203.369065 321.576187)scale(0.1 -0.1)">
       <use xlink:href="#FangSong-49"/>
       <use x="50" xlink:href="#FangSong-53"/>
       <use x="100" xlink:href="#FangSong-48"/>
       <use x="150" xlink:href="#FangSong-48"/>
      </g>
     </g>
    </g>
    <g id="xtick_5">
     <g id="line2d_5">
      <g>
       <use style="stroke:#000000;stroke-width:0.8;" x="259.881177" xlink:href="#mba9fc81541" y="307.584"/>
      </g>
     </g>
     <g id="text_5">
      <!-- 2000 -->
      <defs>
       <path d="M 35.9375 50.390625 
Q 35.9375 57.421875 32.8125 61.125 
Q 29.6875 64.84375 23.4375 64.84375 
Q 18.75 64.84375 15.421875 62.296875 
Q 12.109375 59.765625 12.109375 55.859375 
Q 12.109375 53.515625 13.46875 51.953125 
Q 14.84375 50.390625 14.84375 48.828125 
Q 14.84375 46.875 13.859375 45.890625 
Q 12.890625 44.921875 10.9375 44.921875 
Q 8.59375 44.921875 7.21875 46.28125 
Q 5.859375 47.65625 5.859375 50.78125 
Q 5.859375 58.984375 11.71875 63.28125 
Q 17.578125 67.578125 24.21875 67.578125 
Q 33.59375 67.578125 38.078125 62.890625 
Q 42.578125 58.203125 42.578125 51.171875 
Q 42.578125 46.484375 40.421875 41.796875 
Q 38.28125 37.109375 33.59375 32.8125 
Q 22.265625 21.875 16.203125 15.03125 
Q 10.15625 8.203125 8.984375 5.859375 
L 32.03125 5.859375 
Q 35.546875 5.859375 37.890625 8.59375 
Q 40.234375 11.328125 41.015625 16.796875 
L 43.359375 16.796875 
L 41.015625 0 
L 4.6875 0 
L 4.6875 5.078125 
Q 6.640625 8.59375 11.125 14.0625 
Q 15.625 19.53125 23.046875 26.953125 
Q 29.6875 33.59375 32.8125 39.453125 
Q 35.9375 45.3125 35.9375 50.390625 
z
" id="FangSong-50"/>
      </defs>
      <g transform="translate(249.881177 321.576187)scale(0.1 -0.1)">
       <use xlink:href="#FangSong-50"/>
       <use x="50" xlink:href="#FangSong-48"/>
       <use x="100" xlink:href="#FangSong-48"/>
       <use x="150" xlink:href="#FangSong-48"/>
      </g>
     </g>
    </g>
    <g id="xtick_6">
     <g id="line2d_6">
      <g>
       <use style="stroke:#000000;stroke-width:0.8;" x="306.39329" xlink:href="#mba9fc81541" y="307.584"/>
      </g>
     </g>
     <g id="text_6">
      <!-- 2500 -->
      <g transform="translate(296.39329 321.576187)scale(0.1 -0.1)">
       <use xlink:href="#FangSong-50"/>
       <use x="50" xlink:href="#FangSong-53"/>
       <use x="100" xlink:href="#FangSong-48"/>
       <use x="150" xlink:href="#FangSong-48"/>
      </g>
     </g>
    </g>
    <g id="xtick_7">
     <g id="line2d_7">
      <g>
       <use style="stroke:#000000;stroke-width:0.8;" x="352.905402" xlink:href="#mba9fc81541" y="307.584"/>
      </g>
     </g>
     <g id="text_7">
      <!-- 3000 -->
      <defs>
       <path d="M 43.359375 17.96875 
Q 43.359375 10.546875 37.890625 4.875 
Q 32.421875 -0.78125 22.65625 -0.78125 
Q 15.625 -0.78125 10.546875 3.125 
Q 5.46875 7.03125 5.46875 12.109375 
Q 5.46875 14.453125 7.03125 16.203125 
Q 8.59375 17.96875 10.15625 17.96875 
Q 12.5 17.96875 13.46875 16.203125 
Q 14.453125 14.453125 14.453125 13.28125 
Q 14.453125 11.328125 13.671875 9.953125 
Q 12.890625 8.59375 12.890625 7.421875 
Q 12.890625 5.078125 15.8125 3.515625 
Q 18.75 1.953125 22.265625 1.953125 
Q 29.296875 1.953125 32.8125 6.046875 
Q 36.328125 10.15625 36.328125 18.75 
Q 36.328125 25.78125 32.609375 30.078125 
Q 28.90625 34.375 18.75 34.375 
L 18.75 37.109375 
Q 26.5625 37.109375 30.265625 40.8125 
Q 33.984375 44.53125 33.984375 51.171875 
Q 33.984375 56.640625 31.046875 60.734375 
Q 28.125 64.84375 21.875 64.84375 
Q 19.140625 64.84375 16.015625 63.46875 
Q 12.890625 62.109375 12.890625 58.984375 
Q 12.890625 55.859375 13.671875 55.078125 
Q 14.453125 54.296875 14.453125 53.125 
Q 14.453125 51.171875 13.671875 50 
Q 12.890625 48.828125 10.9375 48.828125 
Q 9.375 48.828125 8 50 
Q 6.640625 51.171875 6.640625 54.296875 
Q 6.640625 60.15625 11.71875 63.859375 
Q 16.796875 67.578125 23.4375 67.578125 
Q 31.25 67.578125 35.9375 62.6875 
Q 40.625 57.8125 40.625 52.34375 
Q 40.625 46.484375 37.6875 42.375 
Q 34.765625 38.28125 28.515625 36.328125 
Q 37.109375 33.203125 40.234375 28.125 
Q 43.359375 23.046875 43.359375 17.96875 
z
" id="FangSong-51"/>
      </defs>
      <g transform="translate(342.905402 321.576187)scale(0.1 -0.1)">
       <use xlink:href="#FangSong-51"/>
       <use x="50" xlink:href="#FangSong-48"/>
       <use x="100" xlink:href="#FangSong-48"/>
       <use x="150" xlink:href="#FangSong-48"/>
      </g>
     </g>
    </g>
    <g id="xtick_8">
     <g id="line2d_8">
      <g>
       <use style="stroke:#000000;stroke-width:0.8;" x="399.417515" xlink:href="#mba9fc81541" y="307.584"/>
      </g>
     </g>
     <g id="text_8">
      <!-- 3500 -->
      <g transform="translate(389.417515 321.576187)scale(0.1 -0.1)">
       <use xlink:href="#FangSong-51"/>
       <use x="50" xlink:href="#FangSong-53"/>
       <use x="100" xlink:href="#FangSong-48"/>
       <use x="150" xlink:href="#FangSong-48"/>
      </g>
     </g>
    </g>
    <g id="text_9">
     <!-- 迭代次数 -->
     <defs>
      <path d="M 47.265625 54.296875 
Q 50.390625 54.296875 60.546875 55.859375 
Q 60.9375 66.015625 61.125 71.671875 
Q 61.328125 77.34375 58.59375 81.25 
L 59.765625 82.421875 
L 66.40625 76.5625 
Q 64.453125 74.609375 64.25 69.71875 
Q 64.0625 64.84375 64.0625 56.640625 
Q 74.609375 57.8125 77.34375 58.984375 
L 82.03125 55.46875 
Q 76.5625 55.078125 63.671875 53.125 
Q 63.671875 46.09375 62.890625 40.625 
Q 79.296875 43.359375 82.8125 44.53125 
L 87.109375 40.625 
Q 80.859375 40.234375 62.5 37.890625 
Q 62.109375 35.15625 61.328125 32.8125 
Q 74.21875 25 82.421875 20.703125 
Q 82.8125 16.015625 82.03125 12.890625 
Q 78.125 17.96875 60.546875 30.859375 
Q 58.203125 26.171875 53.90625 21.09375 
Q 49.609375 16.015625 39.453125 11.328125 
L 38.671875 12.890625 
Q 48.046875 18.359375 52.140625 23.4375 
Q 56.25 28.515625 58.59375 37.5 
Q 41.015625 34.375 38.671875 33.59375 
L 34.765625 37.109375 
Q 39.453125 37.109375 59.375 40.234375 
Q 60.15625 47.265625 60.15625 52.734375 
Q 53.125 51.953125 50 50.78125 
L 46.875 53.125 
Q 44.140625 47.265625 39.84375 42.1875 
L 38.671875 43.359375 
Q 44.921875 54.6875 46.671875 62.109375 
Q 48.4375 69.53125 47.265625 72.265625 
L 48.4375 73.4375 
L 53.515625 67.1875 
Q 51.953125 66.015625 50.578125 62.5 
Q 49.21875 58.984375 47.265625 54.296875 
z
M 76.171875 -4.6875 
Q 59.375 1.171875 47.84375 4.296875 
Q 36.328125 7.421875 29.875 8.984375 
Q 23.4375 10.546875 19.140625 10.546875 
Q 14.84375 10.546875 12.109375 8.59375 
L 7.421875 12.890625 
Q 14.453125 13.671875 23.4375 13.28125 
Q 25.78125 19.53125 25.96875 22.65625 
Q 26.171875 25.78125 22.65625 30.859375 
Q 24.609375 37.109375 27.734375 42.578125 
Q 13.671875 39.453125 12.5 38.671875 
L 7.8125 42.578125 
Q 13.28125 42.96875 27.734375 45.703125 
L 30.46875 49.21875 
L 34.765625 44.921875 
L 32.03125 42.578125 
Q 28.90625 38.28125 25 30.859375 
Q 28.90625 26.5625 29.296875 23.625 
Q 29.6875 20.703125 26.171875 12.890625 
Q 40.234375 9.375 55.65625 5.265625 
Q 71.09375 1.171875 75.1875 0.78125 
Q 79.296875 0.390625 92.96875 1.953125 
L 92.96875 0 
Q 83.203125 -2.734375 76.171875 -4.6875 
z
M 17.1875 72.265625 
Q 25 66.40625 30.46875 62.890625 
Q 30.078125 58.984375 28.90625 55.078125 
Q 23.828125 62.5 16.015625 70.703125 
z
" id="FangSong-36845"/>
      <path d="M 60.546875 42.1875 
Q 64.0625 22.65625 70.5 12.890625 
Q 76.953125 3.125 84.765625 0 
L 85.9375 17.578125 
L 87.109375 17.578125 
Q 88.28125 -0.78125 89.84375 -8.203125 
Q 75.78125 -2.34375 68.359375 8.78125 
Q 60.9375 19.921875 57.03125 41.015625 
Q 44.53125 37.5 42.1875 36.71875 
L 37.109375 39.84375 
Q 41.40625 40.234375 56.640625 44.53125 
Q 55.078125 60.15625 54.296875 68.75 
Q 53.515625 77.34375 51.5625 80.46875 
L 52.734375 81.25 
L 60.15625 75.390625 
Q 58.203125 74.609375 58.203125 67.96875 
Q 58.203125 61.328125 60.15625 45.3125 
Q 79.6875 50.390625 82.421875 51.953125 
L 87.5 48.4375 
Q 81.25 47.65625 60.546875 42.1875 
z
M 41.40625 79.296875 
L 45.3125 71.09375 
Q 44.140625 71.875 40.8125 67.375 
Q 37.5 62.890625 31.640625 54.296875 
L 31.25 -1.953125 
Q 31.25 -10.546875 30.078125 -8.59375 
L 25.78125 -2.734375 
Q 27.734375 -0.78125 27.734375 5.078125 
L 28.125 50 
Q 21.09375 41.796875 9.375 32.421875 
L 8.59375 33.984375 
Q 25.78125 50 33.390625 62.890625 
Q 41.015625 75.78125 40.234375 78.90625 
z
M 68.75 73.046875 
Q 76.953125 67.96875 81.640625 65.234375 
Q 81.25 60.9375 80.46875 56.640625 
Q 75 64.453125 67.96875 71.09375 
z
" id="FangSong-20195"/>
      <path d="M 75.78125 -7.421875 
Q 76.5625 -6.25 71.09375 2.53125 
Q 65.625 11.328125 55.078125 27.734375 
Q 47.65625 1.171875 23.4375 -10.546875 
L 22.65625 -8.59375 
Q 31.25 -3.90625 37.296875 2.734375 
Q 43.359375 9.375 46.875 16.796875 
Q 50.390625 24.21875 52.140625 33.59375 
Q 53.90625 42.96875 51.953125 44.921875 
L 53.125 45.703125 
L 58.984375 39.84375 
Q 57.8125 39.84375 57.21875 37.6875 
Q 56.640625 35.546875 55.859375 32.03125 
Q 67.1875 14.0625 71.09375 8 
Q 75 1.953125 79.09375 -0.96875 
Q 83.203125 -3.90625 93.359375 -3.515625 
L 93.359375 -5.859375 
L 75.78125 -7.421875 
z
M 80.078125 58.984375 
L 85.9375 54.296875 
Q 83.59375 53.515625 80.265625 49.21875 
Q 76.953125 44.921875 70.703125 36.328125 
L 69.140625 37.109375 
L 76.953125 50.78125 
L 48.046875 47.265625 
Q 42.578125 37.5 35.546875 29.296875 
L 34.375 30.46875 
Q 44.921875 46.875 50.390625 62.5 
Q 55.859375 78.125 53.515625 80.859375 
L 54.6875 81.640625 
L 60.15625 74.609375 
Q 58.59375 75.390625 56.640625 69.140625 
Q 54.6875 62.890625 49.609375 51.171875 
L 77.34375 54.296875 
z
M 35.546875 50.78125 
L 37.5 50.390625 
Q 25.78125 21.875 19.140625 5.859375 
Q 14.453125 12.890625 6.640625 19.921875 
L 7.421875 21.875 
L 17.96875 14.453125 
z
M 30.078125 55.46875 
Q 30.078125 51.953125 28.90625 48.046875 
Q 22.65625 57.03125 14.84375 66.015625 
L 15.625 67.1875 
Q 24.21875 60.15625 30.078125 55.46875 
z
" id="FangSong-27425"/>
      <path d="M 77.34375 42.96875 
Q 76.171875 41.796875 74.015625 35.34375 
Q 71.875 28.90625 68.359375 20.3125 
Q 76.171875 4.6875 79.484375 0.578125 
Q 82.8125 -3.515625 93.75 -3.515625 
L 93.75 -5.46875 
L 76.953125 -6.640625 
Q 77.34375 -5.078125 74.796875 0.578125 
Q 72.265625 6.25 66.40625 17.1875 
Q 56.25 0.78125 40.234375 -10.546875 
L 39.0625 -8.984375 
Q 53.125 1.5625 64.0625 20.3125 
Q 57.8125 33.59375 55.46875 36.71875 
Q 53.125 32.03125 50.78125 28.515625 
L 49.21875 29.296875 
Q 53.125 37.890625 55.859375 45.890625 
Q 58.59375 53.90625 61.71875 66.015625 
Q 64.84375 78.125 62.890625 79.6875 
L 64.0625 80.46875 
L 69.140625 75 
Q 67.96875 74.21875 66.984375 70.3125 
Q 66.015625 66.40625 60.9375 50 
Q 83.203125 52.734375 85.546875 54.296875 
L 90.234375 50 
Q 84.765625 49.609375 73.4375 48.046875 
z
M 46.484375 7.03125 
Q 46.875 3.515625 46.875 0.390625 
Q 42.1875 3.125 35.546875 6.25 
Q 25.78125 -3.90625 8.59375 -9.765625 
L 7.8125 -8.203125 
Q 23.046875 -1.171875 31.640625 7.421875 
Q 26.171875 8.984375 19.921875 10.9375 
L 25 21.484375 
Q 15.625 20.3125 12.890625 19.53125 
L 8.203125 23.828125 
Q 12.890625 23.828125 26.5625 25.390625 
Q 28.125 29.296875 28.515625 31.828125 
Q 28.90625 34.375 28.515625 36.71875 
L 29.296875 37.109375 
L 33.59375 31.25 
Q 32.421875 30.859375 30.46875 25.78125 
L 42.578125 26.953125 
Q 43.359375 28.90625 42.96875 32.421875 
L 44.140625 32.8125 
L 48.828125 26.5625 
Q 47.65625 26.5625 45.3125 21.671875 
Q 42.96875 16.796875 38.28125 8.984375 
Q 41.40625 8.203125 46.484375 7.03125 
z
M 36.71875 56.25 
L 41.40625 56.640625 
Q 45.3125 64.84375 46.671875 69.328125 
Q 48.046875 73.828125 47.65625 77.34375 
L 48.828125 78.125 
L 53.125 71.484375 
Q 51.953125 71.09375 50.1875 67.765625 
Q 48.4375 64.453125 43.75 56.640625 
Q 51.171875 58.203125 51.5625 58.59375 
L 55.078125 54.296875 
Q 50.78125 54.296875 36.71875 52.734375 
L 36.71875 50.390625 
Q 43.75 47.265625 50.390625 44.53125 
Q 50.390625 41.40625 50 37.5 
Q 44.53125 42.96875 36.71875 48.046875 
L 36.71875 37.109375 
Q 36.71875 32.03125 35.15625 34.375 
L 31.640625 39.0625 
Q 33.59375 41.015625 33.203125 44.53125 
L 33.203125 50 
Q 21.09375 35.9375 7.421875 27.734375 
L 6.25 29.296875 
Q 18.75 37.890625 29.6875 51.953125 
Q 16.40625 50.390625 15.625 49.609375 
L 10.546875 54.296875 
Q 16.40625 53.90625 33.203125 55.859375 
L 33.203125 69.921875 
Q 33.203125 77.734375 31.25 80.859375 
L 32.421875 81.640625 
L 38.28125 76.953125 
Q 36.71875 75.78125 36.71875 68.75 
z
M 59.375 38.28125 
Q 59.765625 35.9375 61.71875 31.640625 
L 65.625 24.21875 
Q 67.578125 28.125 70.109375 37.109375 
Q 72.65625 46.09375 71.875 47.65625 
L 59.375 46.09375 
Q 57.8125 42.1875 56.25 38.671875 
z
M 33.984375 10.15625 
Q 39.0625 16.796875 41.796875 23.828125 
L 29.296875 21.875 
L 24.609375 12.5 
z
M 25.390625 57.03125 
Q 23.046875 62.5 17.1875 70.703125 
L 18.359375 71.875 
Q 23.046875 67.96875 28.515625 62.890625 
Q 26.953125 59.765625 25.390625 57.03125 
z
" id="FangSong-25968"/>
     </defs>
     <g transform="translate(216.16 334.873062)scale(0.1 -0.1)">
      <use xlink:href="#FangSong-36845"/>
      <use x="100" xlink:href="#FangSong-20195"/>
      <use x="200" xlink:href="#FangSong-27425"/>
      <use x="300" xlink:href="#FangSong-25968"/>
     </g>
    </g>
   </g>
   <g id="matplotlib.axis_2">
    <g id="ytick_1">
     <g id="line2d_9">
      <defs>
       <path d="M 0 0 
L -3.5 0 
" id="mb7b8944c8b" style="stroke:#000000;stroke-width:0.8;"/>
      </defs>
      <g>
       <use style="stroke:#000000;stroke-width:0.8;" x="57.6" xlink:href="#mb7b8944c8b" y="307.584"/>
      </g>
     </g>
     <g id="text_10">
      <!-- 0.0 -->
      <defs>
       <path d="M 17.578125 4.296875 
Q 17.578125 1.953125 16.015625 0.390625 
Q 14.453125 -1.171875 12.109375 -1.171875 
Q 9.765625 -1.171875 8.203125 0.390625 
Q 6.640625 1.953125 6.640625 4.296875 
Q 6.640625 6.640625 8.203125 8.203125 
Q 9.765625 9.765625 12.109375 9.765625 
Q 14.453125 9.765625 16.015625 8.203125 
Q 17.578125 6.640625 17.578125 4.296875 
z
" id="FangSong-46"/>
      </defs>
      <g transform="translate(35.6 311.080094)scale(0.1 -0.1)">
       <use xlink:href="#FangSong-48"/>
       <use x="50" xlink:href="#FangSong-46"/>
       <use x="100" xlink:href="#FangSong-48"/>
      </g>
     </g>
    </g>
    <g id="ytick_2">
     <g id="line2d_10">
      <g>
       <use style="stroke:#000000;stroke-width:0.8;" x="57.6" xlink:href="#mb7b8944c8b" y="254.3616"/>
      </g>
     </g>
     <g id="text_11">
      <!-- 0.2 -->
      <g transform="translate(35.6 257.857694)scale(0.1 -0.1)">
       <use xlink:href="#FangSong-48"/>
       <use x="50" xlink:href="#FangSong-46"/>
       <use x="100" xlink:href="#FangSong-50"/>
      </g>
     </g>
    </g>
    <g id="ytick_3">
     <g id="line2d_11">
      <g>
       <use style="stroke:#000000;stroke-width:0.8;" x="57.6" xlink:href="#mb7b8944c8b" y="201.1392"/>
      </g>
     </g>
     <g id="text_12">
      <!-- 0.4 -->
      <defs>
       <path d="M 35.546875 7.421875 
Q 35.546875 4.6875 37.109375 3.515625 
Q 38.671875 2.34375 41.40625 2.34375 
L 44.921875 2.34375 
L 44.921875 0 
L 19.140625 0 
L 19.140625 2.34375 
L 23.4375 2.34375 
Q 26.5625 2.34375 27.921875 3.515625 
Q 29.296875 4.6875 29.296875 7.421875 
L 29.296875 20.3125 
L 3.125 20.3125 
L 3.125 22.265625 
L 31.640625 67.578125 
L 35.546875 67.578125 
L 35.546875 22.65625 
L 46.09375 22.65625 
L 46.09375 20.3125 
L 35.546875 20.3125 
z
M 28.90625 57.8125 
L 6.640625 22.65625 
L 29.296875 22.65625 
L 29.296875 57.8125 
z
" id="FangSong-52"/>
      </defs>
      <g transform="translate(35.6 204.635294)scale(0.1 -0.1)">
       <use xlink:href="#FangSong-48"/>
       <use x="50" xlink:href="#FangSong-46"/>
       <use x="100" xlink:href="#FangSong-52"/>
      </g>
     </g>
    </g>
    <g id="ytick_4">
     <g id="line2d_12">
      <g>
       <use style="stroke:#000000;stroke-width:0.8;" x="57.6" xlink:href="#mb7b8944c8b" y="147.9168"/>
      </g>
     </g>
     <g id="text_13">
      <!-- 0.6 -->
      <defs>
       <path d="M 11.71875 26.5625 
Q 11.71875 14.84375 15.8125 8.390625 
Q 19.921875 1.953125 25.78125 1.953125 
Q 31.640625 1.953125 34.765625 6.25 
Q 37.890625 10.546875 37.890625 22.265625 
Q 37.890625 30.078125 34.5625 34.375 
Q 31.25 38.671875 26.5625 38.671875 
Q 22.265625 38.671875 18.546875 36.125 
Q 14.84375 33.59375 11.71875 26.5625 
z
M 26.953125 42.578125 
Q 36.328125 42.578125 40.421875 36.328125 
Q 44.53125 30.078125 44.53125 22.265625 
Q 44.53125 10.546875 38.859375 4.875 
Q 33.203125 -0.78125 25.78125 -0.78125 
Q 15.234375 -0.78125 9.765625 7.21875 
Q 4.296875 15.234375 4.296875 30.46875 
Q 4.296875 48.4375 10.9375 58 
Q 17.578125 67.578125 28.90625 67.578125 
Q 34.375 67.578125 37.6875 64.453125 
Q 41.015625 61.328125 41.015625 58.984375 
Q 41.015625 56.640625 40.03125 55.46875 
Q 39.0625 54.296875 36.71875 54.296875 
Q 34.765625 54.296875 33.78125 55.265625 
Q 32.8125 56.25 32.8125 58.203125 
Q 32.8125 58.984375 33 59.765625 
Q 33.203125 60.546875 33.203125 61.328125 
Q 33.203125 62.890625 32.03125 63.859375 
Q 30.859375 64.84375 27.734375 64.84375 
Q 21.09375 64.84375 16.40625 58.78125 
Q 11.71875 52.734375 11.71875 32.421875 
Q 14.0625 37.5 18.15625 40.03125 
Q 22.265625 42.578125 26.953125 42.578125 
z
" id="FangSong-54"/>
      </defs>
      <g transform="translate(35.6 151.412894)scale(0.1 -0.1)">
       <use xlink:href="#FangSong-48"/>
       <use x="50" xlink:href="#FangSong-46"/>
       <use x="100" xlink:href="#FangSong-54"/>
      </g>
     </g>
    </g>
    <g id="ytick_5">
     <g id="line2d_13">
      <g>
       <use style="stroke:#000000;stroke-width:0.8;" x="57.6" xlink:href="#mb7b8944c8b" y="94.6944"/>
      </g>
     </g>
     <g id="text_14">
      <!-- 0.8 -->
      <defs>
       <path d="M 9.375 16.015625 
Q 9.375 9.765625 13.46875 5.859375 
Q 17.578125 1.953125 23.828125 1.953125 
Q 31.25 1.953125 34.5625 5.859375 
Q 37.890625 9.765625 37.890625 15.625 
Q 37.890625 20.703125 33.203125 25.390625 
Q 28.515625 30.078125 19.140625 33.984375 
Q 14.453125 30.859375 11.90625 26.171875 
Q 9.375 21.484375 9.375 16.015625 
z
M 43.75 16.796875 
Q 43.75 9.375 38.28125 4.296875 
Q 32.8125 -0.78125 23.828125 -0.78125 
Q 15.625 -0.78125 9.765625 4.296875 
Q 3.90625 9.375 3.90625 16.015625 
Q 3.90625 22.65625 7.21875 27.34375 
Q 10.546875 32.03125 16.796875 35.546875 
Q 11.328125 38.28125 8.390625 42.375 
Q 5.46875 46.484375 5.46875 51.5625 
Q 5.46875 58.203125 10.546875 62.890625 
Q 15.625 67.578125 24.609375 67.578125 
Q 32.8125 67.578125 37.890625 62.890625 
Q 42.96875 58.203125 42.96875 51.5625 
Q 42.96875 46.875 40.03125 42.765625 
Q 37.109375 38.671875 30.859375 35.546875 
Q 37.5 31.640625 40.625 26.953125 
Q 43.75 22.265625 43.75 16.796875 
z
M 37.5 51.171875 
Q 37.5 56.640625 34.375 60.734375 
Q 31.25 64.84375 24.609375 64.84375 
Q 17.1875 64.84375 14.0625 60.9375 
Q 10.9375 57.03125 10.9375 52.734375 
Q 10.9375 48.4375 15.421875 44.328125 
Q 19.921875 40.234375 28.125 37.109375 
Q 32.8125 39.453125 35.15625 42.96875 
Q 37.5 46.484375 37.5 51.171875 
z
" id="FangSong-56"/>
      </defs>
      <g transform="translate(35.6 98.190494)scale(0.1 -0.1)">
       <use xlink:href="#FangSong-48"/>
       <use x="50" xlink:href="#FangSong-46"/>
       <use x="100" xlink:href="#FangSong-56"/>
      </g>
     </g>
    </g>
    <g id="ytick_6">
     <g id="line2d_14">
      <g>
       <use style="stroke:#000000;stroke-width:0.8;" x="57.6" xlink:href="#mb7b8944c8b" y="41.472"/>
      </g>
     </g>
     <g id="text_15">
      <!-- 1.0 -->
      <g transform="translate(35.6 44.968094)scale(0.1 -0.1)">
       <use xlink:href="#FangSong-49"/>
       <use x="50" xlink:href="#FangSong-46"/>
       <use x="100" xlink:href="#FangSong-48"/>
      </g>
     </g>
    </g>
    <g id="text_16">
     <!-- 值 -->
     <defs>
      <path d="M 74.21875 55.078125 
L 78.90625 50.390625 
L 76.171875 47.65625 
L 75.390625 3.125 
Q 87.109375 3.90625 89.0625 5.078125 
L 92.96875 0.390625 
Q 87.109375 0.78125 62.6875 -1.359375 
Q 38.28125 -3.515625 34.375 -4.296875 
L 30.078125 0 
Q 35.9375 0 44.921875 0.78125 
L 44.140625 43.359375 
Q 44.140625 48.4375 42.1875 52.734375 
L 43.359375 53.515625 
L 47.65625 47.65625 
L 56.640625 48.828125 
L 57.03125 59.765625 
Q 41.40625 57.8125 38.28125 57.03125 
L 33.984375 60.9375 
Q 40.234375 60.9375 57.421875 63.671875 
L 57.8125 70.3125 
Q 58.203125 76.953125 55.859375 80.46875 
L 57.03125 81.640625 
L 63.671875 75.390625 
Q 61.328125 75.390625 61.328125 69.53125 
L 60.9375 64.0625 
Q 79.6875 66.796875 82.8125 67.96875 
L 87.5 63.671875 
Q 82.8125 63.671875 60.546875 60.15625 
L 60.15625 49.21875 
L 72.265625 50.78125 
z
M 47.65625 36.71875 
Q 62.109375 38.671875 66.796875 40.234375 
L 69.53125 35.9375 
Q 64.0625 35.546875 48.046875 33.203125 
L 48.046875 25.390625 
Q 64.453125 27.34375 66.015625 28.125 
L 69.921875 24.609375 
Q 64.453125 24.21875 48.046875 21.875 
L 48.4375 14.453125 
Q 65.234375 15.625 67.1875 16.796875 
L 69.921875 12.890625 
Q 64.84375 12.890625 48.4375 10.9375 
L 48.4375 0.78125 
L 71.875 2.734375 
L 72.65625 47.265625 
L 47.65625 44.140625 
z
M 27.34375 -3.515625 
Q 27.34375 -10.546875 25.78125 -7.03125 
L 22.265625 -0.78125 
Q 24.21875 1.953125 23.828125 4.6875 
L 24.609375 53.90625 
Q 16.796875 42.96875 7.421875 34.765625 
L 6.25 35.9375 
Q 17.1875 47.265625 25.578125 60.9375 
Q 33.984375 74.609375 33.203125 79.296875 
L 34.375 79.296875 
L 38.671875 73.046875 
Q 37.109375 72.265625 34.765625 69.140625 
Q 32.03125 65.234375 28.125 58.984375 
L 27.34375 -3.515625 
z
" id="FangSong-20540"/>
     </defs>
     <g transform="translate(30.154688 179.528)rotate(-90)scale(0.1 -0.1)">
      <use xlink:href="#FangSong-20540"/>
     </g>
    </g>
   </g>
   <g id="line2d_15">
    <path clip-path="url(#pa10db2b65b)" d="M 78.940197 -1 
L 79.414181 44.344615 
L 80.344423 101.998639 
L 81.274665 143.45725 
L 82.204908 169.991973 
L 83.13515 189.08468 
L 84.065392 202.940503 
L 84.995634 213.400123 
L 85.925877 221.542574 
L 86.856119 228.134864 
L 87.786361 233.69043 
L 88.716603 238.468575 
L 90.577088 246.348951 
L 92.437572 252.610116 
L 94.298057 257.807049 
L 96.158541 262.150315 
L 98.019026 265.863998 
L 99.87951 269.00288 
L 101.739995 271.734137 
L 103.600479 274.12961 
L 106.391206 277.247932 
L 109.181933 279.925317 
L 111.97266 282.231246 
L 114.763386 284.227253 
L 117.554113 285.96756 
L 121.275082 287.99801 
L 124.996051 289.799183 
L 128.71702 291.379142 
L 133.368231 293.05558 
L 138.019443 294.495945 
L 143.600896 295.967458 
L 149.18235 297.24116 
L 155.694045 298.497982 
L 163.135983 299.681629 
L 171.508164 300.781233 
L 180.810586 301.754056 
L 191.973493 302.68334 
L 204.996885 303.522749 
L 219.880761 304.251836 
L 238.485606 304.924951 
L 262.671904 305.559062 
L 293.369898 306.1256 
L 332.440073 306.608628 
L 384.533639 307.008894 
L 398.487273 307.084432 
L 398.487273 307.084432 
" style="fill:none;stroke:#808080;stroke-linecap:square;stroke-width:1.5;"/>
   </g>
   <g id="line2d_16">
    <path clip-path="url(#pa10db2b65b)" d="M 78.568713 -1 
L 79.414181 63.846454 
L 80.344423 117.040348 
L 81.274665 154.709121 
L 82.204908 177.44908 
L 83.13515 193.840659 
L 84.065392 207.232152 
L 84.995634 217.69492 
L 85.925877 225.354896 
L 86.856119 231.469414 
L 87.786361 236.683489 
L 88.716603 241.143797 
L 90.577088 248.428419 
L 92.437572 254.212584 
L 94.298057 258.968329 
L 96.158541 262.954708 
L 98.019026 266.385727 
L 99.87951 269.348864 
L 101.739995 271.933608 
L 103.600479 274.223495 
L 105.460964 276.263775 
L 108.251691 278.971543 
L 111.042417 281.325177 
L 113.833144 283.361472 
L 116.623871 285.124564 
L 120.34484 287.166367 
L 124.065809 288.947174 
L 127.786778 290.497028 
L 131.507747 291.837145 
L 136.158958 293.261777 
L 140.810169 294.467431 
L 146.391623 295.692362 
L 152.903319 296.879485 
L 160.345257 297.986955 
L 168.717437 299.02925 
L 178.019859 299.945404 
L 189.182766 300.806536 
L 202.206158 301.558682 
L 218.020276 302.249705 
L 237.555363 302.868163 
L 263.602146 303.468506 
L 306.39329 304.182222 
L 347.323949 304.648113 
L 391.975577 304.932255 
L 398.487273 304.962853 
L 398.487273 304.962853 
" style="fill:none;stroke:#000000;stroke-dasharray:1.5,2.475;stroke-dashoffset:0;stroke-width:1.5;"/>
   </g>
   <g id="line2d_17">
    <path clip-path="url(#pa10db2b65b)" d="M 73.832727 174.528 
L 74.76297 185.725062 
L 75.693212 147.335134 
L 76.623454 163.040105 
L 77.553696 127.267672 
L 78.483939 140.282439 
L 79.414181 123.34143 
L 80.344423 119.124354 
L 81.274665 106.836669 
L 82.204908 99.711266 
L 84.065392 87.060039 
L 84.995634 82.624839 
L 87.786361 72.736525 
L 90.577088 64.811331 
L 91.50733 62.775502 
L 93.367815 60.594256 
L 94.298057 59.503633 
L 95.228299 58.631134 
L 96.158541 57.104262 
L 98.019026 55.940931 
L 98.949268 55.57739 
L 99.87951 55.068433 
L 100.809753 54.850308 
L 102.670237 53.686977 
L 103.600479 53.323436 
L 104.530722 53.250728 
L 106.391206 52.74177 
L 107.321448 52.596354 
L 109.181933 51.651148 
L 110.112175 51.287607 
L 111.042417 51.14219 
L 113.833144 50.051567 
L 116.623871 49.54261 
L 118.484355 48.960944 
L 119.414598 48.960944 
L 120.34484 48.451987 
L 121.275082 48.379279 
L 122.205324 48.161154 
L 123.135567 48.088446 
L 124.065809 47.579489 
L 124.996051 47.50678 
L 125.926293 47.652197 
L 126.856536 47.215948 
L 127.786778 47.143239 
L 128.71702 46.925115 
L 130.577505 46.70699 
L 131.507747 46.488866 
L 133.368231 46.416157 
L 134.298474 46.125325 
L 136.158958 46.125325 
L 138.019443 45.9072 
L 138.949685 45.9072 
L 139.879927 45.761784 
L 140.810169 45.398243 
L 145.461381 45.325534 
L 152.903319 44.816577 
L 157.55453 44.743869 
L 160.345257 44.598452 
L 164.066226 44.525744 
L 164.996468 44.30762 
L 172.438406 44.234911 
L 177.089617 43.944079 
L 188.252524 43.87137 
L 190.113009 43.798662 
L 193.833978 43.798662 
L 194.76422 43.50783 
L 206.857369 43.435121 
L 208.717854 43.362413 
L 218.020276 43.289705 
L 218.950518 43.144289 
L 228.252941 43.07158 
L 230.113425 42.998872 
L 259.881177 42.926164 
L 262.671904 42.780748 
L 279.416265 42.708039 
L 281.276749 42.635331 
L 391.045335 42.562623 
L 393.836061 42.417207 
L 398.487273 42.417207 
L 398.487273 42.417207 
" style="fill:none;stroke:#808080;stroke-dasharray:9.6,2.4,1.5,2.4;stroke-dashoffset:0;stroke-width:1.5;"/>
   </g>
   <g id="patch_3">
    <path d="M 57.6 307.584 
L 57.6 41.472 
" style="fill:none;stroke:#000000;stroke-linecap:square;stroke-linejoin:miter;stroke-width:0.8;"/>
   </g>
   <g id="patch_4">
    <path d="M 414.72 307.584 
L 414.72 41.472 
" style="fill:none;stroke:#000000;stroke-linecap:square;stroke-linejoin:miter;stroke-width:0.8;"/>
   </g>
   <g id="patch_5">
    <path d="M 57.6 307.584 
L 414.72 307.584 
" style="fill:none;stroke:#000000;stroke-linecap:square;stroke-linejoin:miter;stroke-width:0.8;"/>
   </g>
   <g id="patch_6">
    <path d="M 57.6 41.472 
L 414.72 41.472 
" style="fill:none;stroke:#000000;stroke-linecap:square;stroke-linejoin:miter;stroke-width:0.8;"/>
   </g>
   <g id="text_17">
    <!-- 损失函数-准确率变化曲线 -->
    <defs>
     <path d="M 80.859375 78.90625 
L 85.15625 75 
L 82.421875 71.875 
L 80.46875 57.421875 
L 84.375 54.6875 
L 52.734375 52.34375 
Q 53.125 47.65625 51.171875 49.609375 
L 48.4375 53.90625 
Q 49.609375 55.078125 49.40625 60.15625 
Q 49.21875 65.234375 49.015625 69.53125 
Q 48.828125 73.828125 48.046875 78.125 
L 49.609375 78.515625 
L 51.953125 73.046875 
L 78.515625 75.390625 
z
M 26.953125 -0.390625 
Q 27.734375 2.734375 28.125 9.375 
L 28.515625 33.59375 
Q 13.28125 25.78125 12.5 24.21875 
L 6.640625 27.734375 
Q 9.765625 28.515625 28.515625 36.71875 
L 28.515625 51.171875 
Q 15.625 49.21875 15.625 48.046875 
L 10.9375 52.734375 
Q 16.40625 52.734375 28.515625 54.6875 
L 28.90625 69.140625 
Q 28.90625 77.734375 26.5625 80.46875 
L 27.34375 81.25 
L 34.375 76.5625 
Q 32.03125 74.609375 32.421875 67.96875 
L 32.03125 55.46875 
Q 40.625 57.03125 41.015625 58.203125 
L 44.53125 53.515625 
Q 40.625 53.515625 32.03125 51.953125 
L 32.03125 38.28125 
L 42.578125 43.359375 
L 43.359375 41.796875 
L 32.03125 35.546875 
L 31.640625 5.859375 
Q 31.25 -3.515625 28.125 -8.984375 
Q 23.046875 -1.5625 15.234375 6.25 
L 16.015625 7.421875 
L 26.953125 -0.390625 
z
M 83.203125 48.4375 
L 87.5 44.921875 
L 84.765625 41.796875 
Q 84.375 34.765625 83.984375 25.1875 
Q 83.59375 15.625 83.203125 11.328125 
Q 82.8125 7.03125 81.640625 7.8125 
L 78.515625 14.453125 
Q 79.6875 14.84375 80.265625 21.484375 
Q 80.859375 28.125 80.859375 41.40625 
L 49.21875 39.0625 
L 49.21875 12.109375 
Q 49.609375 7.421875 48.046875 8.59375 
L 44.140625 15.234375 
Q 46.09375 16.015625 45.703125 20.703125 
L 45.703125 36.71875 
Q 45.703125 42.578125 44.921875 47.265625 
L 46.484375 47.65625 
L 48.828125 42.578125 
L 80.46875 44.921875 
z
M 76.953125 57.8125 
L 78.90625 71.875 
L 52.34375 69.53125 
L 52.734375 55.859375 
z
M 62.5 35.546875 
L 67.96875 30.46875 
Q 67.1875 30.078125 66.40625 24.609375 
Q 65.625 19.140625 63.46875 12.6875 
Q 61.328125 6.25 55.078125 0.1875 
Q 48.828125 -5.859375 34.765625 -10.15625 
L 34.375 -8.59375 
Q 45.703125 -4.6875 52.921875 2.53125 
Q 60.15625 9.765625 62.109375 20.890625 
Q 64.0625 32.03125 61.328125 34.765625 
z
M 90.625 -8.984375 
Q 81.25 -0.78125 67.1875 8.984375 
L 67.96875 10.15625 
Q 79.6875 3.515625 91.015625 -1.953125 
Q 91.40625 -5.859375 90.625 -8.984375 
z
" id="FangSong-25439"/>
     <path d="M 48.4375 53.515625 
Q 49.21875 63.28125 49.609375 70.3125 
Q 50 77.34375 48.4375 80.46875 
L 49.21875 81.640625 
L 55.46875 76.171875 
Q 53.90625 73.828125 53.3125 69.328125 
Q 52.734375 64.84375 51.953125 53.90625 
Q 69.53125 56.25 71.875 57.8125 
L 77.34375 53.515625 
Q 68.75 52.734375 51.953125 50.390625 
Q 51.5625 41.796875 49.609375 34.375 
Q 80.078125 37.5 82.8125 39.0625 
L 88.28125 34.765625 
Q 80.078125 34.375 53.125 31.640625 
Q 66.40625 12.890625 70.109375 7.21875 
Q 73.828125 1.5625 76.953125 -1.171875 
Q 80.078125 -3.90625 92.96875 -4.296875 
L 93.359375 -6.25 
L 73.4375 -7.8125 
Q 72.265625 -3.125 51.171875 30.859375 
L 49.21875 30.859375 
Q 38.671875 -0.390625 8.984375 -10.15625 
L 8.203125 -8.984375 
Q 35.9375 3.90625 44.921875 30.46875 
Q 19.140625 27.734375 16.015625 26.5625 
L 11.328125 31.25 
Q 21.09375 31.25 46.09375 33.984375 
Q 47.65625 41.796875 48.4375 50.390625 
Q 37.5 49.21875 34.375 47.65625 
L 31.25 49.609375 
Q 26.5625 41.015625 21.875 35.546875 
L 20.3125 36.328125 
Q 26.953125 47.265625 30.65625 58.78125 
Q 34.375 70.3125 32.421875 71.484375 
L 33.203125 72.265625 
L 39.0625 66.015625 
Q 37.109375 64.453125 35.9375 61.90625 
Q 34.765625 59.375 31.640625 51.5625 
L 48.4375 53.515625 
z
" id="FangSong-22833"/>
     <path d="M 74.609375 78.90625 
L 79.6875 72.265625 
Q 76.953125 72.265625 68.9375 65.8125 
Q 60.9375 59.375 53.515625 53.125 
Q 54.6875 46.484375 54.296875 39.453125 
Q 70.3125 53.125 69.53125 56.25 
L 71.09375 56.640625 
L 73.4375 48.4375 
Q 72.265625 50.390625 54.296875 36.71875 
L 54.296875 34.375 
Q 67.578125 29.296875 72.65625 26.953125 
L 72.65625 19.53125 
Q 69.921875 22.265625 54.296875 32.8125 
L 54.296875 13.671875 
Q 53.90625 6.640625 51.171875 2.734375 
Q 48.046875 7.421875 38.28125 15.234375 
L 39.0625 16.40625 
L 49.21875 11.328125 
Q 50.390625 10.9375 50.78125 17.1875 
L 50.78125 34.765625 
Q 30.859375 21.484375 30.078125 19.53125 
L 23.828125 22.265625 
Q 28.125 23.828125 50.78125 37.890625 
Q 50.78125 48.4375 50 52.53125 
Q 49.21875 56.640625 47.265625 60.15625 
L 48.4375 61.328125 
Q 51.171875 58.203125 52.34375 55.078125 
L 69.921875 71.484375 
Q 28.515625 68.75 25.390625 67.578125 
L 19.921875 72.265625 
Q 27.734375 71.484375 71.484375 75.390625 
z
M 22.65625 1.171875 
Q 63.28125 2.34375 74.21875 3.90625 
L 77.34375 0.78125 
Q 78.90625 10.546875 79.875 21.28125 
Q 80.859375 32.03125 81.640625 41.59375 
Q 82.421875 51.171875 80.46875 53.515625 
L 81.640625 54.296875 
L 88.28125 49.21875 
Q 85.9375 49.609375 84.765625 37.890625 
L 82.8125 14.84375 
Q 82.03125 3.515625 80.46875 -3.515625 
Q 78.90625 -10.546875 78.125 -8.390625 
Q 77.34375 -6.25 76.5625 0 
L 23.046875 -2.734375 
L 21.09375 -5.859375 
L 16.40625 -0.390625 
L 19.140625 1.171875 
L 17.96875 36.328125 
Q 18.359375 46.09375 15.625 51.953125 
L 16.40625 53.125 
L 22.65625 46.875 
Q 21.09375 46.09375 21.484375 37.890625 
L 22.65625 1.171875 
z
M 41.796875 36.328125 
Q 38.28125 41.015625 27.734375 50.78125 
L 28.515625 51.5625 
Q 38.28125 46.09375 42.578125 43.75 
Q 42.578125 39.84375 41.796875 36.328125 
z
" id="FangSong-20989"/>
     <path d="M 2.734375 33.203125 
L 2.734375 36.71875 
L 46.09375 36.71875 
L 46.09375 33.203125 
z
" id="FangSong-45"/>
     <path d="M 68.359375 25.78125 
Q 79.296875 26.953125 82.03125 27.734375 
L 85.9375 23.828125 
Q 81.25 23.828125 68.359375 21.875 
L 68.359375 7.03125 
Q 85.9375 8.203125 89.0625 9.375 
L 93.75 5.078125 
Q 87.5 5.078125 71.671875 3.90625 
Q 55.859375 2.734375 51.953125 1.953125 
L 48.828125 4.6875 
L 48.4375 -6.25 
Q 48.046875 -10.9375 46.875 -9.375 
L 42.96875 -3.125 
Q 45.3125 0 44.921875 2.734375 
L 45.3125 51.5625 
Q 37.890625 39.84375 30.46875 31.25 
L 28.90625 32.421875 
Q 35.546875 41.796875 40.234375 50 
Q 44.921875 58.203125 49.015625 67.96875 
Q 53.125 77.734375 51.5625 80.46875 
L 52.734375 81.25 
L 57.8125 74.609375 
Q 56.640625 75 54.296875 70.3125 
Q 51.953125 65.625 48.828125 58.203125 
L 48.828125 54.6875 
Q 83.203125 58.203125 86.328125 59.765625 
L 90.234375 55.46875 
Q 85.546875 55.46875 68.359375 53.515625 
L 68.359375 40.625 
Q 76.953125 41.796875 81.640625 42.96875 
L 84.765625 39.0625 
Q 78.90625 38.671875 68.359375 37.109375 
z
M 48.828125 23.046875 
L 48.4375 5.859375 
Q 53.125 5.859375 64.84375 7.03125 
L 64.84375 21.484375 
Q 55.078125 20.703125 52.34375 19.921875 
z
M 64.84375 52.734375 
Q 53.90625 51.5625 51.953125 50.78125 
L 48.828125 53.90625 
L 48.828125 38.28125 
Q 52.734375 38.671875 64.84375 40.234375 
z
M 48.828125 37.5 
L 48.828125 23.828125 
Q 54.296875 24.21875 64.84375 25.390625 
L 64.84375 36.71875 
Q 56.25 35.9375 52.34375 34.765625 
z
M 18.75 9.765625 
Q 16.40625 13.28125 7.8125 23.046875 
L 8.59375 24.609375 
L 17.1875 18.359375 
L 33.203125 53.125 
L 34.765625 52.34375 
Q 20.703125 15.625 18.75 9.765625 
z
M 25.390625 48.828125 
Q 20.3125 57.03125 14.0625 65.625 
L 15.234375 66.40625 
Q 23.828125 58.984375 27.34375 55.859375 
Q 26.953125 51.953125 25.390625 48.828125 
z
M 71.09375 60.9375 
Q 69.921875 64.84375 63.28125 76.171875 
L 64.453125 77.734375 
L 74.21875 67.96875 
Q 73.4375 64.453125 71.09375 60.9375 
z
" id="FangSong-20934"/>
     <path d="M 81.640625 -2.734375 
Q 82.421875 -2.34375 82.421875 1.171875 
L 83.203125 48.828125 
L 69.921875 47.265625 
L 69.53125 36.71875 
Q 75.78125 37.5 77.734375 38.28125 
L 80.859375 34.375 
Q 76.5625 34.375 69.53125 33.203125 
L 69.140625 23.4375 
Q 75 23.4375 78.125 24.609375 
L 81.640625 20.703125 
Q 75.78125 20.3125 69.140625 19.53125 
L 68.75 1.5625 
Q 68.359375 -3.90625 66.40625 -0.78125 
L 63.28125 4.296875 
Q 65.625 6.25 65.625 10.546875 
L 65.625 19.140625 
Q 58.59375 18.359375 57.421875 17.578125 
L 53.515625 21.875 
Q 57.421875 21.484375 65.625 23.046875 
L 66.015625 32.8125 
Q 58.59375 31.640625 57.03125 30.859375 
L 53.515625 34.375 
Q 53.515625 22.65625 50 11.328125 
Q 46.484375 0 36.71875 -9.765625 
L 35.546875 -8.984375 
Q 43.359375 1.5625 45.890625 9.375 
Q 48.4375 17.1875 49.40625 24.40625 
Q 50.390625 31.640625 50 49.609375 
Q 46.875 44.921875 43.75 41.796875 
L 42.578125 42.96875 
Q 53.125 58.59375 57.421875 69.140625 
Q 61.71875 79.6875 59.765625 81.25 
L 60.9375 82.03125 
L 66.40625 75.78125 
Q 65.234375 75.78125 63.859375 73.625 
Q 62.5 71.484375 59.375 65.234375 
L 73.046875 67.1875 
L 75.78125 70.3125 
L 80.859375 65.625 
Q 77.734375 64.453125 69.140625 50.78125 
L 82.421875 52.34375 
L 85.15625 56.25 
L 89.453125 52.34375 
L 86.71875 48.828125 
L 85.9375 1.5625 
Q 86.328125 -6.25 83.203125 -9.765625 
Q 80.078125 -6.25 71.09375 1.171875 
L 71.875 2.34375 
L 81.640625 -2.734375 
z
M 25.78125 14.84375 
Q 26.171875 5.859375 25.1875 6.25 
Q 24.21875 6.640625 20.3125 13.28125 
Q 21.875 14.453125 21.875 18.75 
L 21.484375 37.5 
Q 16.015625 30.46875 8.203125 23.046875 
L 7.03125 24.609375 
Q 21.09375 39.453125 28.90625 59.375 
Q 19.140625 58.203125 16.015625 57.421875 
L 12.5 61.71875 
Q 20.703125 61.71875 31.046875 63.28125 
Q 41.40625 64.84375 42.96875 66.015625 
L 46.875 61.328125 
Q 41.015625 61.328125 30.46875 59.765625 
L 33.59375 56.640625 
Q 32.421875 56.25 30.46875 52.53125 
Q 28.515625 48.828125 22.65625 39.84375 
L 25 39.0625 
L 37.109375 41.015625 
L 39.453125 44.921875 
L 43.75 40.625 
L 41.40625 38.28125 
L 39.453125 20.3125 
L 42.1875 17.1875 
L 25.78125 14.84375 
z
M 35.546875 19.921875 
L 37.5 37.5 
L 25 35.546875 
L 25.390625 18.75 
z
M 57.8125 61.328125 
Q 54.6875 56.25 51.171875 51.5625 
L 53.90625 48.828125 
L 66.40625 50.390625 
L 73.046875 63.671875 
z
M 53.515625 35.15625 
Q 57.421875 35.15625 66.015625 36.328125 
L 66.40625 46.875 
L 53.515625 45.3125 
L 53.515625 35.15625 
z
" id="FangSong-30830"/>
     <path d="M 58.59375 32.8125 
L 46.484375 30.46875 
L 53.515625 26.953125 
Q 51.5625 25.78125 51.5625 23.046875 
L 51.5625 21.484375 
Q 83.59375 23.828125 86.71875 24.609375 
L 91.015625 20.3125 
Q 83.984375 20.3125 51.5625 17.96875 
L 51.171875 -5.859375 
Q 51.171875 -10.546875 50 -10.15625 
L 45.3125 -3.515625 
Q 47.65625 -1.5625 47.65625 2.34375 
L 48.046875 17.578125 
Q 17.96875 15.234375 15.234375 14.84375 
L 9.765625 19.140625 
Q 17.578125 18.359375 48.046875 21.09375 
L 48.046875 23.4375 
Q 48.046875 27.34375 46.484375 30.078125 
Q 37.890625 28.515625 35.9375 27.34375 
L 32.03125 32.03125 
L 37.109375 33.203125 
Q 39.84375 36.328125 49.21875 46.484375 
Q 38.671875 44.140625 36.328125 42.578125 
L 32.8125 48.046875 
L 36.328125 48.046875 
Q 39.84375 52.34375 46.09375 62.890625 
Q 25 60.546875 22.65625 59.765625 
L 16.796875 64.453125 
Q 25.78125 64.0625 51.359375 66.59375 
Q 76.953125 69.140625 78.515625 70.3125 
L 83.59375 65.625 
Q 76.953125 66.015625 46.875 62.5 
L 51.171875 59.765625 
Q 49.609375 59.375 46.671875 55.859375 
Q 43.75 52.34375 39.84375 48.046875 
L 51.171875 49.21875 
Q 53.90625 51.953125 54.6875 53.515625 
Q 55.46875 55.078125 55.46875 57.421875 
L 57.03125 57.8125 
L 59.375 50.78125 
Q 57.8125 50.78125 52.53125 45.109375 
Q 47.265625 39.453125 41.015625 32.8125 
L 57.421875 35.15625 
L 53.515625 41.015625 
L 54.6875 42.1875 
Q 60.546875 37.109375 64.453125 33.203125 
Q 63.671875 30.46875 61.71875 26.953125 
z
M 80.46875 37.109375 
Q 80.46875 33.203125 79.296875 30.46875 
Q 75.390625 35.15625 61.328125 45.703125 
Q 64.84375 48.828125 69.71875 54.09375 
Q 74.609375 59.375 74.21875 62.890625 
L 75.78125 62.890625 
L 78.125 55.46875 
Q 76.5625 55.46875 73.046875 52.734375 
Q 69.53125 50 64.453125 45.703125 
Q 75.390625 39.453125 80.46875 37.109375 
z
M 32.8125 41.015625 
Q 18.75 30.078125 17.96875 28.125 
L 11.328125 31.25 
Q 15.625 32.421875 32.03125 42.578125 
z
M 26.171875 44.140625 
Q 23.4375 48.046875 15.234375 55.46875 
L 16.015625 57.03125 
Q 23.828125 53.125 27.34375 51.171875 
Q 27.34375 48.4375 26.171875 44.140625 
z
M 49.609375 67.1875 
Q 48.046875 72.265625 42.1875 80.859375 
L 43.359375 82.03125 
Q 50 76.171875 52.34375 73.4375 
Q 51.5625 70.703125 49.609375 67.1875 
z
" id="FangSong-29575"/>
     <path d="M 57.421875 40.625 
Q 57.421875 35.9375 57.421875 34.375 
L 61.71875 35.15625 
L 64.453125 38.28125 
L 69.140625 33.59375 
L 65.234375 31.640625 
Q 58.203125 19.921875 51.171875 12.890625 
Q 60.9375 3.90625 64.84375 0.578125 
Q 68.75 -2.734375 71.28125 -3.90625 
Q 73.828125 -5.078125 87.890625 -5.46875 
L 88.28125 -7.03125 
Q 78.90625 -7.8125 69.140625 -9.375 
Q 67.1875 -6.25 48.828125 10.546875 
Q 30.859375 -5.078125 12.5 -9.765625 
L 12.109375 -8.203125 
Q 30.078125 -1.5625 45.703125 12.890625 
Q 43.75 15.234375 39.640625 18.9375 
Q 35.546875 22.65625 33.984375 22.265625 
L 33.203125 23.828125 
L 39.0625 25 
Q 39.0625 23.828125 41.203125 21.484375 
Q 43.359375 19.140625 48.4375 15.234375 
Q 56.640625 24.609375 60.15625 31.25 
Q 36.71875 27.734375 33.203125 26.953125 
L 28.125 31.25 
Q 32.8125 31.25 41.40625 32.421875 
L 38.671875 37.5 
Q 41.015625 39.453125 40.625 43.75 
L 40.625 60.9375 
Q 22.65625 59.375 19.921875 58.59375 
L 15.234375 62.5 
Q 20.703125 62.5 49.015625 65.234375 
Q 77.34375 67.96875 80.859375 69.140625 
L 84.765625 65.234375 
Q 77.734375 64.84375 57.421875 62.5 
L 57.421875 40.625 
z
M 44.140625 38.671875 
Q 43.75 35.15625 43.359375 32.421875 
L 55.859375 33.984375 
L 52.34375 39.0625 
Q 53.90625 41.40625 53.90625 44.921875 
L 53.90625 62.5 
L 44.140625 61.328125 
z
M 33.203125 46.875 
Q 32.03125 47.265625 26.953125 41.40625 
Q 21.875 35.546875 10.9375 27.34375 
L 9.765625 28.515625 
Q 20.703125 38.28125 25 44.53125 
Q 29.296875 50.78125 28.515625 53.125 
L 29.6875 53.515625 
z
M 82.421875 44.921875 
Q 82.8125 41.015625 82.03125 37.5 
Q 73.828125 45.703125 62.5 53.90625 
L 63.671875 55.078125 
Q 73.4375 50 82.421875 44.921875 
z
M 53.515625 71.875 
Q 52.34375 69.53125 50 66.796875 
Q 47.65625 73.046875 42.578125 80.859375 
L 43.75 81.640625 
Q 50 75.78125 53.515625 71.875 
z
" id="FangSong-21464"/>
     <path d="M 57.8125 7.8125 
Q 57.8125 0.390625 68.359375 0 
L 79.296875 0 
Q 85.15625 0 86.125 2.53125 
Q 87.109375 5.078125 87.109375 21.09375 
L 89.0625 21.09375 
Q 89.0625 15.625 89.640625 8.78125 
Q 90.234375 1.953125 92.578125 -2.34375 
Q 87.890625 -3.90625 79.296875 -3.90625 
L 68.359375 -3.90625 
Q 54.296875 -3.90625 54.296875 6.25 
L 54.296875 30.46875 
Q 46.484375 24.21875 35.546875 18.75 
L 34.765625 20.703125 
Q 45.3125 26.5625 54.296875 34.375 
L 54.296875 66.796875 
Q 54.296875 76.171875 51.953125 80.078125 
L 52.734375 80.859375 
L 60.15625 73.828125 
Q 57.421875 72.65625 57.8125 66.015625 
L 57.8125 36.71875 
Q 66.015625 42.96875 73.046875 50.390625 
Q 80.078125 57.8125 79.296875 61.71875 
L 80.46875 61.71875 
L 83.203125 53.125 
Q 82.421875 53.90625 74.609375 46.671875 
Q 66.796875 39.453125 57.8125 32.8125 
z
M 32.03125 -4.6875 
Q 32.03125 -10.9375 30.46875 -8.59375 
L 26.5625 -1.171875 
Q 28.90625 -0.390625 28.515625 4.6875 
L 28.90625 52.34375 
Q 21.875 42.96875 7.8125 31.25 
L 7.03125 32.8125 
Q 21.875 47.65625 31.640625 62.5 
Q 41.40625 77.34375 39.453125 80.46875 
L 40.625 80.859375 
L 44.921875 72.65625 
Q 43.359375 73.4375 40.03125 68.75 
Q 36.71875 64.0625 32.421875 57.421875 
z
" id="FangSong-21270"/>
     <path d="M 82.03125 55.46875 
L 86.71875 51.171875 
L 83.59375 48.4375 
Q 78.90625 7.03125 77.34375 0.390625 
Q 75.78125 -6.25 75.1875 -4.875 
Q 74.609375 -3.515625 73.828125 2.34375 
L 25.390625 -1.171875 
Q 25.78125 -6.640625 24.609375 -5.859375 
L 19.921875 0 
Q 21.875 3.125 21.484375 6.25 
L 19.53125 40.234375 
Q 19.53125 47.265625 17.578125 53.125 
L 19.140625 53.515625 
L 22.65625 46.875 
L 40.234375 48.4375 
L 40.234375 66.40625 
Q 40.625 73.4375 37.890625 76.953125 
L 39.0625 77.734375 
L 45.3125 71.484375 
Q 43.359375 70.703125 43.75 66.015625 
L 43.75 48.828125 
L 57.421875 50 
L 57.421875 70.703125 
Q 57.421875 78.90625 54.6875 80.859375 
L 55.46875 82.03125 
L 63.28125 76.171875 
Q 60.546875 75.390625 60.9375 69.53125 
L 60.9375 50.390625 
L 79.296875 52.34375 
z
M 60.9375 30.078125 
Q 70.3125 31.25 69.921875 32.03125 
L 73.4375 27.34375 
Q 68.75 27.34375 60.9375 26.5625 
L 60.9375 5.078125 
Q 71.09375 5.859375 71.09375 6.640625 
L 73.828125 2.734375 
Q 75.78125 7.421875 79.296875 48.046875 
L 60.9375 46.875 
L 60.9375 30.078125 
z
M 40.234375 24.21875 
Q 32.421875 23.4375 31.25 22.65625 
L 26.5625 26.953125 
Q 30.859375 26.953125 40.234375 27.734375 
L 40.234375 44.921875 
L 23.4375 43.359375 
L 25.390625 2.734375 
L 40.234375 3.515625 
z
M 43.75 3.90625 
L 57.421875 4.6875 
L 57.421875 26.171875 
L 43.75 24.609375 
z
M 57.421875 29.6875 
L 57.421875 46.484375 
L 43.75 45.3125 
L 43.75 28.125 
z
" id="FangSong-26354"/>
     <path d="M 64.0625 17.578125 
Q 69.53125 22.65625 72.453125 26.5625 
Q 75.390625 30.46875 75 33.59375 
L 76.171875 33.984375 
L 78.90625 25.390625 
Q 77.34375 25.78125 74.609375 23.046875 
Q 71.875 20.3125 65.625 13.671875 
Q 75 0 84.765625 -3.125 
L 85.546875 12.5 
L 87.109375 12.5 
Q 88.28125 -5.46875 89.453125 -9.765625 
Q 73.4375 -5.46875 62.890625 11.328125 
Q 53.515625 2.34375 36.328125 -5.46875 
L 35.546875 -3.90625 
Q 49.21875 2.734375 61.328125 14.84375 
Q 58.59375 21.09375 55.859375 32.03125 
Q 46.484375 29.296875 45.3125 28.515625 
L 39.84375 30.859375 
Q 44.921875 32.03125 55.46875 35.15625 
Q 54.6875 40.234375 53.515625 47.265625 
Q 48.046875 46.09375 46.09375 44.921875 
L 41.40625 47.265625 
Q 44.53125 48.046875 53.515625 50.390625 
Q 51.953125 62.890625 51.5625 69.71875 
Q 51.171875 76.5625 48.828125 80.078125 
L 50 81.25 
L 57.03125 75.390625 
Q 55.46875 72.65625 55.65625 67.578125 
Q 55.859375 62.5 56.640625 51.953125 
Q 71.09375 56.25 71.875 57.421875 
L 77.34375 54.296875 
Q 71.875 53.125 57.03125 48.4375 
Q 57.8125 40.625 58.984375 35.9375 
Q 78.125 42.578125 78.90625 43.75 
L 84.375 40.625 
Q 81.640625 40.234375 59.375 33.203125 
Q 61.328125 23.4375 64.0625 17.578125 
z
M 39.453125 26.953125 
Q 21.484375 21.09375 18.359375 19.140625 
L 14.84375 23.4375 
L 19.140625 24.609375 
L 30.46875 42.578125 
Q 18.359375 40.234375 15.234375 38.28125 
L 12.109375 42.96875 
L 16.40625 44.921875 
Q 24.21875 59.375 27.140625 66.40625 
Q 30.078125 73.4375 28.90625 76.5625 
L 30.078125 77.34375 
L 34.765625 69.921875 
Q 33.203125 70.703125 28.3125 61.515625 
Q 23.4375 52.34375 19.140625 43.75 
L 32.421875 45.703125 
Q 38.28125 54.6875 37.109375 58.59375 
L 38.28125 59.375 
L 42.1875 51.953125 
Q 40.625 51.953125 36.515625 45.703125 
Q 32.421875 39.453125 23.046875 25.390625 
L 39.0625 28.515625 
z
M 44.140625 12.890625 
Q 17.1875 0.78125 15.625 -0.390625 
L 9.765625 3.125 
Q 15.625 3.90625 43.359375 14.84375 
z
M 73.4375 60.9375 
Q 69.53125 65.234375 61.328125 72.65625 
L 62.109375 74.21875 
Q 70.703125 69.921875 73.4375 68.75 
z
" id="FangSong-32447"/>
    </defs>
    <g transform="translate(167.16 35.472)scale(0.12 -0.12)">
     <use xlink:href="#FangSong-25439"/>
     <use x="100" xlink:href="#FangSong-22833"/>
     <use x="200" xlink:href="#FangSong-20989"/>
     <use x="300" xlink:href="#FangSong-25968"/>
     <use x="400" xlink:href="#FangSong-45"/>
     <use x="450" xlink:href="#FangSong-20934"/>
     <use x="550" xlink:href="#FangSong-30830"/>
     <use x="650" xlink:href="#FangSong-29575"/>
     <use x="750" xlink:href="#FangSong-21464"/>
     <use x="850" xlink:href="#FangSong-21270"/>
     <use x="950" xlink:href="#FangSong-26354"/>
     <use x="1050" xlink:href="#FangSong-32447"/>
    </g>
   </g>
   <g id="legend_1">
    <g id="patch_7">
     <path d="M 315.72 92.401688 
L 407.72 92.401688 
Q 409.72 92.401688 409.72 90.401688 
L 409.72 48.472 
Q 409.72 46.472 407.72 46.472 
L 315.72 46.472 
Q 313.72 46.472 313.72 48.472 
L 313.72 90.401688 
Q 313.72 92.401688 315.72 92.401688 
z
" style="fill:#ffffff;opacity:0.8;stroke:#cccccc;stroke-linejoin:miter;"/>
    </g>
    <g id="line2d_18">
     <path d="M 317.72 54.823563 
L 337.72 54.823563 
" style="fill:none;stroke:#808080;stroke-linecap:square;stroke-width:1.5;"/>
    </g>
    <g id="line2d_19"/>
    <g id="text_18">
     <!-- 训练集loss -->
     <defs>
      <path d="M 79.6875 81.25 
L 86.71875 75.390625 
Q 84.375 73.4375 84.765625 67.578125 
L 84.765625 -5.46875 
Q 84.765625 -10.546875 83.203125 -9.375 
L 79.296875 -3.125 
Q 81.640625 -1.171875 81.25 5.859375 
L 81.25 68.75 
Q 81.640625 76.953125 78.515625 80.078125 
z
M 29.296875 -8.984375 
Q 41.40625 2.734375 44.140625 16.59375 
Q 46.875 30.46875 46.875 39.84375 
L 46.875 59.375 
Q 46.875 69.53125 43.75 71.875 
L 45.3125 73.4375 
L 51.953125 67.578125 
Q 50.390625 67.96875 50.390625 58.203125 
Q 50.390625 48.4375 50.578125 39.640625 
Q 50.78125 30.859375 47.84375 16.40625 
Q 44.921875 1.953125 30.46875 -9.765625 
z
M 41.015625 21.875 
Q 28.90625 5.46875 25.78125 0.390625 
L 21.875 4.296875 
L 23.828125 7.03125 
L 24.609375 44.140625 
Q 12.890625 41.796875 11.71875 41.40625 
L 7.421875 44.921875 
Q 14.453125 45.3125 23.828125 47.65625 
L 25.390625 51.5625 
L 30.46875 47.65625 
L 28.125 44.921875 
L 27.34375 8.984375 
L 40.234375 23.046875 
z
M 67.96875 13.28125 
Q 67.578125 7.8125 66.796875 9.375 
L 62.890625 14.84375 
Q 64.84375 16.796875 64.453125 21.875 
L 64.453125 51.5625 
Q 64.84375 60.9375 62.109375 64.0625 
L 63.28125 65.234375 
L 69.53125 59.765625 
Q 67.578125 58.203125 67.96875 51.171875 
z
M 31.25 65.625 
Q 30.859375 62.890625 29.296875 58.59375 
Q 25.390625 64.84375 16.40625 75.78125 
L 17.1875 76.5625 
Q 26.953125 69.53125 31.25 65.625 
z
" id="FangSong-35757"/>
      <path d="M 47.65625 44.53125 
Q 42.1875 43.75 41.796875 42.96875 
L 37.5 46.484375 
Q 40.625 46.484375 48.828125 47.65625 
L 53.125 59.375 
Q 42.578125 58.59375 40.625 57.03125 
L 35.15625 60.9375 
Q 40.234375 60.9375 54.296875 62.890625 
Q 57.8125 71.484375 58.59375 75.1875 
Q 59.375 78.90625 58.203125 80.859375 
L 59.375 81.640625 
L 64.84375 75.78125 
Q 63.28125 75.390625 62.109375 73.046875 
Q 60.9375 70.703125 58.59375 63.28125 
Q 76.953125 65.234375 79.296875 66.796875 
L 85.546875 62.890625 
Q 76.953125 62.5 57.421875 59.765625 
L 52.34375 48.046875 
L 61.328125 49.609375 
L 63.671875 53.125 
L 68.359375 48.4375 
L 65.625 46.09375 
L 65.625 35.546875 
Q 76.953125 37.109375 79.296875 37.890625 
L 84.765625 34.375 
Q 78.90625 33.984375 65.625 32.03125 
L 65.234375 1.171875 
Q 65.234375 -5.859375 62.890625 -10.15625 
Q 57.03125 -2.734375 48.828125 3.125 
L 49.609375 4.296875 
L 59.765625 -1.171875 
Q 61.328125 -1.953125 61.71875 0.78125 
L 62.109375 31.640625 
L 46.09375 29.296875 
L 44.140625 27.34375 
L 39.84375 31.640625 
L 42.578125 33.203125 
L 47.65625 44.53125 
z
M 36.328125 31.640625 
L 36.71875 30.078125 
Q 17.96875 22.65625 15.625 20.703125 
L 12.5 25.390625 
L 16.015625 27.34375 
Q 19.140625 30.859375 27.34375 45.703125 
Q 16.015625 43.75 13.28125 42.1875 
L 9.765625 46.484375 
L 13.28125 47.265625 
Q 16.015625 52.34375 21.875 64.640625 
Q 27.734375 76.953125 25.78125 80.46875 
L 26.953125 81.25 
L 32.03125 74.21875 
Q 30.46875 74.609375 27.734375 69.140625 
Q 25 63.671875 16.796875 46.875 
L 28.515625 48.046875 
Q 30.859375 51.953125 31.4375 53.703125 
Q 32.03125 55.46875 32.03125 58.59375 
L 33.203125 59.375 
L 36.71875 51.953125 
Q 35.546875 51.953125 32.8125 47.84375 
Q 30.078125 43.75 20.3125 27.34375 
z
M 62.109375 35.15625 
L 62.109375 46.484375 
L 51.171875 44.921875 
L 46.484375 33.203125 
z
M 40.625 20.3125 
Q 14.453125 6.640625 12.5 4.6875 
L 6.640625 8.203125 
Q 12.890625 9.765625 40.625 22.265625 
z
M 30.078125 -1.5625 
Q 37.109375 4.6875 44.140625 13.078125 
Q 51.171875 21.484375 50 24.609375 
L 51.171875 25 
L 54.6875 17.578125 
Q 53.515625 18.359375 45.3125 9.953125 
Q 37.109375 1.5625 31.25 -2.734375 
z
M 89.84375 10.9375 
Q 89.453125 6.25 88.28125 3.125 
Q 83.59375 10.546875 71.09375 23.046875 
L 71.875 24.609375 
Q 83.984375 16.015625 89.84375 10.9375 
z
" id="FangSong-32451"/>
      <path d="M 27.734375 61.328125 
Q 21.875 55.078125 13.28125 48.046875 
L 12.109375 49.609375 
Q 20.3125 56.640625 27.53125 66.984375 
Q 34.765625 77.34375 33.984375 80.859375 
L 35.15625 80.859375 
L 38.671875 74.609375 
Q 36.328125 72.65625 35.734375 71.671875 
Q 35.15625 70.703125 31.25 65.625 
L 31.25 62.890625 
Q 35.9375 62.890625 54.484375 65.03125 
Q 73.046875 67.1875 75 67.578125 
L 79.296875 64.453125 
Q 75.78125 64.0625 55.078125 61.71875 
L 55.078125 55.46875 
Q 68.359375 57.03125 68.75 57.421875 
L 74.21875 53.90625 
Q 69.53125 53.90625 55.078125 51.953125 
L 55.078125 45.703125 
Q 68.75 47.265625 70.703125 48.046875 
L 75.390625 44.921875 
Q 71.09375 44.53125 55.078125 42.578125 
L 55.078125 36.328125 
Q 73.046875 37.890625 76.5625 38.28125 
L 81.640625 35.15625 
Q 73.4375 34.765625 48.828125 32.421875 
L 52.734375 29.6875 
Q 51.171875 28.125 51.171875 25.78125 
L 51.171875 22.65625 
Q 81.25 25.78125 83.984375 26.5625 
L 89.0625 22.65625 
Q 82.8125 22.65625 54.296875 19.921875 
Q 61.71875 14.0625 67.578125 9.953125 
Q 73.4375 5.859375 76.75 4.484375 
Q 80.078125 3.125 92.1875 2.734375 
L 92.1875 1.171875 
Q 79.296875 -0.390625 75 -1.5625 
Q 72.65625 1.953125 51.171875 19.140625 
L 50.78125 -7.03125 
Q 50.78125 -11.328125 49.21875 -8.984375 
L 45.703125 -3.125 
Q 47.265625 -2.734375 47.265625 2.34375 
L 47.65625 17.1875 
Q 30.46875 3.125 8.203125 -4.6875 
L 7.03125 -3.125 
Q 26.953125 5.078125 43.359375 18.75 
Q 20.3125 16.796875 17.1875 16.40625 
L 11.71875 19.921875 
Q 19.140625 19.921875 47.65625 22.265625 
L 47.65625 26.5625 
Q 47.65625 30.078125 47.265625 32.421875 
Q 37.109375 31.640625 34.375 30.859375 
L 31.25 32.8125 
Q 31.25 25.390625 30.078125 26.171875 
Q 28.90625 26.953125 26.171875 32.421875 
Q 27.734375 33.59375 27.734375 37.5 
z
M 31.25 34.375 
Q 34.375 34.375 51.5625 35.9375 
L 51.5625 42.1875 
Q 40.234375 41.015625 38.28125 40.625 
L 33.203125 43.75 
Q 38.28125 43.75 51.5625 45.3125 
L 51.5625 51.5625 
Q 41.015625 50.390625 38.671875 50 
L 33.59375 53.515625 
Q 39.0625 53.515625 51.5625 55.078125 
L 51.5625 61.328125 
Q 37.890625 59.765625 35.546875 58.984375 
L 31.25 61.328125 
z
M 55.078125 66.796875 
Q 52.34375 72.65625 48.4375 78.90625 
L 49.21875 80.46875 
Q 55.46875 75.390625 57.8125 71.484375 
Q 56.640625 68.75 55.078125 66.796875 
z
" id="FangSong-38598"/>
      <path d="M 14.0625 66.796875 
Q 17.578125 66.796875 20.703125 67.578125 
Q 23.828125 68.359375 26.5625 69.921875 
L 27.34375 69.921875 
L 27.34375 5.46875 
Q 27.34375 3.90625 28.3125 3.125 
Q 29.296875 2.34375 30.859375 2.34375 
L 39.84375 2.34375 
L 39.84375 0 
L 9.375 0 
L 9.375 2.34375 
L 18.359375 2.34375 
Q 20.3125 2.34375 21.09375 3.125 
Q 21.875 3.90625 21.875 5.46875 
L 21.875 61.328125 
Q 21.875 62.890625 21.09375 63.671875 
Q 20.3125 64.453125 18.359375 64.453125 
L 9.765625 64.453125 
L 9.765625 66.796875 
z
" id="FangSong-108"/>
      <path d="M 44.921875 21.875 
Q 44.921875 12.109375 39.0625 5.65625 
Q 33.203125 -0.78125 24.609375 -0.78125 
Q 15.625 -0.78125 9.953125 5.859375 
Q 4.296875 12.5 4.296875 21.875 
Q 4.296875 30.46875 9.953125 37.5 
Q 15.625 44.53125 24.609375 44.53125 
Q 33.984375 44.53125 39.453125 37.5 
Q 44.921875 30.46875 44.921875 21.875 
z
M 10.546875 21.484375 
Q 10.546875 11.328125 14.640625 6.4375 
Q 18.75 1.5625 24.609375 1.5625 
Q 31.25 1.5625 34.953125 6.828125 
Q 38.671875 12.109375 38.671875 21.484375 
Q 38.671875 31.640625 34.5625 36.90625 
Q 30.46875 42.1875 24.609375 42.1875 
Q 19.140625 42.1875 14.84375 36.90625 
Q 10.546875 31.640625 10.546875 21.484375 
z
" id="FangSong-111"/>
      <path d="M 9.375 32.421875 
Q 9.375 38.28125 13.859375 41.40625 
Q 18.359375 44.53125 24.609375 44.53125 
Q 28.125 44.53125 31.25 43.546875 
Q 34.375 42.578125 35.546875 42.578125 
Q 36.71875 42.578125 37.5 42.96875 
Q 38.28125 43.359375 39.453125 44.53125 
L 41.015625 31.640625 
L 38.671875 31.25 
Q 37.109375 36.328125 33.390625 39.25 
Q 29.6875 42.1875 25 42.1875 
Q 19.921875 42.1875 16.984375 40.234375 
Q 14.0625 38.28125 14.0625 34.765625 
Q 14.0625 31.640625 15.421875 29.875 
Q 16.796875 28.125 20.3125 27.34375 
Q 23.046875 26.171875 27.140625 24.796875 
Q 31.25 23.4375 34.765625 21.875 
Q 37.890625 20.3125 40.03125 17.765625 
Q 42.1875 15.234375 42.1875 12.109375 
Q 42.1875 6.25 38.078125 2.921875 
Q 33.984375 -0.390625 26.171875 -0.390625 
Q 21.09375 -0.390625 18.546875 0.578125 
Q 16.015625 1.5625 14.453125 1.5625 
Q 13.28125 1.5625 11.90625 0.96875 
Q 10.546875 0.390625 8.984375 -0.390625 
L 7.8125 14.0625 
L 10.15625 14.453125 
Q 11.328125 8.203125 15.234375 5.078125 
Q 19.140625 1.953125 26.171875 1.953125 
Q 31.640625 1.953125 34.5625 3.90625 
Q 37.5 5.859375 37.5 9.765625 
Q 37.5 12.5 35.9375 14.25 
Q 34.375 16.015625 32.8125 16.796875 
Q 28.90625 18.359375 24.21875 20.109375 
Q 19.53125 21.875 16.015625 23.4375 
Q 12.5 25 10.9375 27.34375 
Q 9.375 29.6875 9.375 32.421875 
z
" id="FangSong-115"/>
     </defs>
     <g transform="translate(345.72 58.323563)scale(0.1 -0.1)">
      <use xlink:href="#FangSong-35757"/>
      <use x="100" xlink:href="#FangSong-32451"/>
      <use x="200" xlink:href="#FangSong-38598"/>
      <use x="300" xlink:href="#FangSong-108"/>
      <use x="350" xlink:href="#FangSong-111"/>
      <use x="400" xlink:href="#FangSong-115"/>
      <use x="450" xlink:href="#FangSong-115"/>
     </g>
    </g>
    <g id="line2d_20">
     <path d="M 317.72 69.081375 
L 337.72 69.081375 
" style="fill:none;stroke:#000000;stroke-dasharray:1.5,2.475;stroke-dashoffset:0;stroke-width:1.5;"/>
    </g>
    <g id="line2d_21"/>
    <g id="text_19">
     <!-- 测试集loss -->
     <defs>
      <path d="M 58.984375 74.609375 
L 63.671875 70.3125 
L 60.9375 67.1875 
L 60.9375 23.4375 
Q 61.328125 16.015625 59.765625 16.796875 
L 56.25 22.265625 
Q 57.8125 25 57.421875 28.90625 
L 57.421875 66.796875 
L 39.453125 64.0625 
L 39.453125 21.875 
Q 39.84375 15.625 38.28125 16.40625 
L 33.59375 22.65625 
Q 36.328125 24.21875 35.9375 30.078125 
L 35.9375 63.671875 
Q 35.9375 68.75 33.984375 74.21875 
L 35.9375 75.390625 
L 39.453125 67.578125 
L 56.25 70.3125 
z
M 71.875 4.6875 
L 83.203125 -1.953125 
Q 84.375 2.34375 84.375 8.203125 
L 84.375 69.140625 
Q 84.375 75.78125 82.03125 80.46875 
L 82.8125 81.25 
L 89.84375 75.78125 
Q 87.5 75.390625 87.890625 68.359375 
L 87.890625 6.25 
Q 88.28125 -5.46875 84.375 -10.546875 
Q 80.46875 -4.6875 71.09375 3.125 
z
M 23.4375 -8.984375 
Q 32.8125 -1.5625 37.296875 4.6875 
Q 41.796875 10.9375 43.9375 18.15625 
Q 46.09375 25.390625 46.28125 34.953125 
Q 46.484375 44.53125 46.484375 48.828125 
Q 46.484375 53.515625 44.53125 56.25 
L 45.703125 57.421875 
L 51.953125 52.34375 
Q 50.390625 53.125 50.1875 45.109375 
Q 50 37.109375 49.40625 27.53125 
Q 48.828125 17.96875 43.9375 8.59375 
Q 39.0625 -0.78125 24.609375 -10.546875 
z
M 30.859375 52.34375 
L 32.8125 51.5625 
Q 22.265625 11.328125 18.359375 -1.5625 
Q 15.234375 3.125 6.640625 11.71875 
L 7.421875 12.890625 
L 16.796875 7.8125 
z
M 71.09375 54.6875 
Q 71.484375 62.5 69.140625 65.234375 
L 69.921875 66.796875 
L 76.171875 61.328125 
Q 74.21875 60.15625 74.609375 53.125 
L 74.609375 25 
Q 75 17.578125 73.4375 18.359375 
L 69.53125 24.21875 
Q 71.484375 25.78125 71.09375 30.859375 
z
M 50 15.625 
Q 58.203125 10.15625 64.0625 5.078125 
Q 63.28125 1.171875 62.5 -1.953125 
Q 58.984375 3.90625 49.21875 14.453125 
z
M 26.5625 60.546875 
Q 22.265625 67.1875 16.015625 74.21875 
L 16.796875 75.78125 
Q 22.265625 71.484375 28.125 67.96875 
Q 27.734375 64.0625 26.5625 60.546875 
z
M 21.09375 42.578125 
Q 20.3125 39.0625 19.140625 35.546875 
Q 15.625 41.796875 8.59375 49.609375 
L 9.375 50.78125 
Q 15.234375 46.484375 21.09375 42.578125 
z
" id="FangSong-27979"/>
      <path d="M 66.796875 48.046875 
Q 70.3125 8.984375 88.28125 -1.5625 
L 91.015625 15.625 
L 92.578125 15.625 
Q 90.625 -3.125 92.96875 -8.984375 
Q 67.96875 0.78125 63.28125 48.046875 
Q 42.96875 46.484375 41.015625 45.3125 
L 36.328125 49.609375 
Q 43.75 49.609375 62.890625 51.171875 
Q 62.109375 63.28125 62.109375 69.53125 
Q 62.109375 76.171875 59.375 80.078125 
L 60.546875 80.859375 
L 67.578125 74.609375 
Q 66.015625 75 65.8125 68.75 
Q 65.625 62.5 66.40625 51.5625 
Q 81.25 53.125 84.375 53.515625 
L 88.28125 50 
Q 82.8125 49.21875 66.796875 48.046875 
z
M 25.390625 50 
L 30.859375 45.703125 
L 27.34375 41.796875 
L 25.390625 3.125 
L 39.0625 15.625 
L 39.84375 14.453125 
Q 26.5625 -0.390625 23.046875 -6.25 
L 19.140625 -1.953125 
Q 21.09375 -0.390625 21.484375 3.90625 
L 23.4375 41.796875 
Q 12.5 39.453125 10.15625 38.28125 
L 5.46875 42.1875 
Q 10.9375 42.96875 22.65625 45.703125 
z
M 51.953125 9.765625 
L 64.84375 14.453125 
L 65.625 12.890625 
Q 41.015625 1.953125 39.0625 -0.390625 
L 33.59375 3.125 
Q 36.71875 3.90625 48.4375 8.203125 
L 48.828125 30.46875 
Q 43.359375 29.6875 40.234375 28.515625 
L 36.71875 32.03125 
Q 44.140625 32.8125 50.390625 33.984375 
Q 56.640625 35.15625 58.59375 35.546875 
L 62.5 32.03125 
Q 59.375 31.640625 52.34375 30.859375 
z
M 18.359375 77.734375 
Q 27.34375 70.3125 32.03125 66.40625 
Q 31.25 62.109375 30.078125 58.203125 
Q 26.953125 64.453125 17.578125 76.5625 
z
M 83.59375 59.765625 
Q 80.46875 64.453125 71.09375 74.21875 
L 72.265625 75.390625 
L 85.15625 66.796875 
Q 84.765625 62.890625 83.59375 59.765625 
z
" id="FangSong-35797"/>
     </defs>
     <g transform="translate(345.72 72.581375)scale(0.1 -0.1)">
      <use xlink:href="#FangSong-27979"/>
      <use x="100" xlink:href="#FangSong-35797"/>
      <use x="200" xlink:href="#FangSong-38598"/>
      <use x="300" xlink:href="#FangSong-108"/>
      <use x="350" xlink:href="#FangSong-111"/>
      <use x="400" xlink:href="#FangSong-115"/>
      <use x="450" xlink:href="#FangSong-115"/>
     </g>
    </g>
    <g id="line2d_22">
     <path d="M 317.72 83.456375 
L 337.72 83.456375 
" style="fill:none;stroke:#808080;stroke-dasharray:9.6,2.4,1.5,2.4;stroke-dashoffset:0;stroke-width:1.5;"/>
    </g>
    <g id="line2d_23"/>
    <g id="text_20">
     <!-- 验证集准确率 -->
     <defs>
      <path d="M 30.078125 0 
Q 33.203125 7.8125 35.9375 34.375 
L 19.140625 32.421875 
L 16.40625 29.6875 
L 12.890625 33.984375 
L 15.625 35.546875 
L 17.96875 51.171875 
Q 18.75 57.8125 17.578125 60.9375 
L 18.75 61.71875 
L 23.4375 56.25 
Q 22.265625 53.515625 21.484375 50 
L 19.140625 35.9375 
L 29.6875 37.109375 
L 34.375 68.75 
Q 21.09375 67.578125 16.796875 66.796875 
L 13.28125 71.09375 
Q 18.359375 71.09375 34.375 72.65625 
L 36.71875 75.78125 
L 41.015625 72.265625 
L 38.28125 69.140625 
L 33.203125 37.5 
L 36.328125 37.890625 
L 37.890625 41.015625 
L 40.625 38.671875 
Q 44.921875 44.53125 48.4375 50.78125 
Q 52.34375 57.8125 56.046875 67.765625 
Q 59.765625 77.734375 58.984375 81.640625 
L 60.15625 82.421875 
L 64.0625 75.78125 
Q 62.5 74.21875 61.71875 71.875 
Q 77.34375 49.609375 81.046875 46.28125 
Q 84.765625 42.96875 93.75 41.796875 
L 93.75 40.234375 
Q 85.15625 40.234375 79.6875 39.0625 
Q 77.734375 43.359375 60.546875 69.140625 
Q 53.125 50.390625 42.1875 37.5 
L 42.578125 37.109375 
L 39.84375 34.765625 
Q 35.546875 -0.78125 30.46875 -7.8125 
Q 28.125 -3.515625 19.53125 6.25 
L 20.703125 7.421875 
Q 27.734375 2.34375 30.078125 0 
z
M 72.65625 37.109375 
L 77.34375 30.078125 
Q 75.78125 28.515625 73.828125 22.453125 
Q 71.875 16.40625 67.578125 2.734375 
Q 83.203125 4.296875 83.984375 4.6875 
L 88.671875 0.78125 
Q 83.984375 0.390625 65.234375 -1.359375 
Q 46.484375 -3.125 43.75 -3.515625 
L 38.671875 0.390625 
Q 45.703125 0.390625 65.234375 2.734375 
Q 69.53125 19.140625 70.703125 26.171875 
Q 71.875 33.203125 71.484375 36.71875 
z
M 6.25 17.578125 
Q 11.328125 17.578125 30.859375 23.046875 
L 31.25 21.484375 
Q 15.234375 15.234375 10.546875 12.890625 
z
M 73.046875 43.359375 
Q 64.453125 42.578125 52.734375 40.625 
L 49.609375 44.140625 
Q 58.984375 44.921875 69.140625 46.875 
z
M 60.9375 14.84375 
Q 59.375 22.265625 55.859375 35.546875 
L 57.03125 36.328125 
Q 62.890625 24.21875 64.453125 20.703125 
Q 63.28125 17.578125 60.9375 14.84375 
z
M 50.390625 10.546875 
Q 49.21875 15.625 44.921875 29.6875 
L 46.484375 30.46875 
Q 51.5625 19.921875 53.515625 16.015625 
Q 52.34375 13.671875 50.390625 10.546875 
z
" id="FangSong-39564"/>
      <path d="M 63.28125 66.40625 
Q 47.265625 65.234375 45.3125 64.0625 
L 41.40625 68.359375 
Q 48.828125 68.359375 65.421875 70.109375 
Q 82.03125 71.875 83.984375 72.65625 
L 87.5 67.96875 
Q 81.640625 68.359375 66.796875 66.796875 
L 66.796875 40.234375 
Q 77.734375 41.40625 81.640625 42.578125 
L 84.765625 38.28125 
Q 78.90625 37.890625 66.796875 36.328125 
L 66.40625 4.296875 
Q 87.109375 5.859375 89.453125 6.640625 
L 93.359375 1.953125 
Q 86.71875 1.953125 63.46875 0.390625 
Q 40.234375 -1.171875 37.109375 -1.5625 
L 33.203125 2.734375 
Q 37.890625 2.34375 47.265625 3.125 
L 47.265625 34.375 
Q 47.65625 42.1875 45.703125 46.09375 
L 46.484375 46.875 
L 53.125 41.40625 
Q 50.390625 41.015625 50.78125 32.8125 
L 50.78125 3.125 
L 62.890625 3.90625 
z
M 41.015625 20.3125 
Q 26.953125 0.390625 26.171875 -2.734375 
L 21.484375 1.953125 
Q 23.828125 3.90625 23.828125 7.8125 
L 24.21875 42.1875 
Q 11.71875 40.234375 10.15625 39.453125 
L 6.25 42.96875 
Q 11.71875 43.359375 24.21875 45.703125 
L 26.5625 50 
L 31.640625 44.921875 
L 28.125 42.1875 
L 27.734375 7.03125 
L 40.234375 21.875 
z
M 32.03125 69.140625 
Q 32.421875 64.0625 31.25 60.9375 
Q 26.953125 66.796875 16.015625 76.5625 
L 17.1875 78.125 
Q 27.734375 71.875 32.03125 69.140625 
z
" id="FangSong-35777"/>
     </defs>
     <g transform="translate(345.72 86.956375)scale(0.1 -0.1)">
      <use xlink:href="#FangSong-39564"/>
      <use x="100" xlink:href="#FangSong-35777"/>
      <use x="200" xlink:href="#FangSong-38598"/>
      <use x="300" xlink:href="#FangSong-20934"/>
      <use x="400" xlink:href="#FangSong-30830"/>
      <use x="500" xlink:href="#FangSong-29575"/>
     </g>
    </g>
   </g>
  </g>
 </g>
 <defs>
  <clipPath id="pa10db2b65b">
   <rect height="266.112" width="357.12" x="57.6" y="41.472"/>
  </clipPath>
 </defs>
</svg>
